<?xml version="1.0" encoding="UTF-8" standalone="no"?>
<!-- Uploaded to: SVG Repo, www.svgrepo.com, Generator: SVG Repo Mixer Tools -->

<svg
   fill="#000000"
   width="800px"
   height="800px"
   viewBox="0 0 32 32"
   version="1.1"
   id="svg1"
   sodipodi:docname="battery-75-svgrepo-com-90.svg"
   inkscape:version="1.4.2 (f4327f4, 2025-05-13)"
   xmlns:inkscape="http://www.inkscape.org/namespaces/inkscape"
   xmlns:sodipodi="http://sodipodi.sourceforge.net/DTD/sodipodi-0.dtd"
   xmlns="http://www.w3.org/2000/svg"
   xmlns:svg="http://www.w3.org/2000/svg"
   xmlns:rdf="http://www.w3.org/1999/02/22-rdf-syntax-ns#"
   xmlns:cc="http://creativecommons.org/ns#"
   xmlns:dc="http://purl.org/dc/elements/1.1/">
  <defs
     id="defs1" />
  <sodipodi:namedview
     id="namedview1"
     pagecolor="#ffffff"
     bordercolor="#000000"
     borderopacity="0.25"
     inkscape:showpageshadow="2"
     inkscape:pageopacity="0.0"
     inkscape:pagecheckerboard="0"
     inkscape:deskcolor="#d1d1d1"
     inkscape:zoom="1.06375"
     inkscape:cx="400.47004"
     inkscape:cy="400"
     inkscape:window-width="1920"
     inkscape:window-height="1111"
     inkscape:window-x="-9"
     inkscape:window-y="-9"
     inkscape:window-maximized="1"
     inkscape:current-layer="svg1" />
  <title
     id="title1">battery-75-90-degrees</title>
  <path
     d="m 30.9995,12.5625 c 0,-0.937 -0.211,-1.25 -1.25,-1.25 h -0.937 v -2.813 c 0,-1.847 -0.341,-2.187 -2.187,-2.187 H 3.1875 c -1.847,0 -2.187,0.341 -2.187,2.187 v 15 c 0,1.847 0.341,2.187 2.187,2.187 h 23.438 c 1.847,0 2.187,-0.341 2.187,-2.187 v -2.813 h 0.937 c 1.038,0 1.25,-0.312 1.25,-1.25 v -6.875 z m -6.563,-4.063 c 2.5,0 2.187,-0.312 2.187,2.187 0,1.25 0,9.688 0,10.625 0,2.5 0.312,2.187 -2.187,2.187 -1.25,0 -17.813,0 -19.063,0 -2.5,0 -2.187,0.312 -2.187,-2.187 0,-1.25 0,-9.375 0,-10.625 0,-2.5 -0.312,-2.187 2.187,-2.187 1.251,0 17.813,0 19.063,0 z m -4.375,1.562 v 11.875 c 0,0.345 -0.28,0.625 -0.625,0.625 h -3.438 c -0.345,0 -0.625,-0.28 -0.625,-0.625 v -11.875 c 0,-0.345 0.28,-0.625 0.625,-0.625 h 3.438 c 0.345,0 0.625,0.28 0.625,0.625 z m -5.625,0 v 11.875 c 0,0.345 -0.28,0.625 -0.625,0.625 h -3.438 c -0.345,0 -0.625,-0.28 -0.625,-0.625 v -11.875 c 0,-0.345 0.28,-0.625 0.625,-0.625 h 3.438 c 0.345,0 0.625,0.28 0.625,0.625 z m -5.625,0 v 11.875 c 0,0.345 -0.28,0.625 -0.625,0.625 h -3.438 c -0.345,0 -0.625,-0.28 -0.625,-0.625 v -11.875 c 0,-0.345 0.28,-0.625 0.625,-0.625 h 3.438 c 0.345,0 0.625,0.28 0.625,0.625 z"
     id="path1" />
  <metadata
     id="metadata1">
    <rdf:RDF>
      <cc:Work
         rdf:about="">
        <dc:title>battery-75-90-degrees</dc:title>
      </cc:Work>
    </rdf:RDF>
  </metadata>
</svg>
