<?xml version="1.0" encoding="iso-8859-1"?>
<!-- Uploaded to: SVG Repo, www.svgrepo.com, Generator: SVG Repo Mixer Tools -->
<svg fill="#000000" height="800px" width="800px" version="1.1" id="Layer_1" xmlns="http://www.w3.org/2000/svg" xmlns:xlink="http://www.w3.org/1999/xlink" 
	 viewBox="0 0 511.653 511.653" xml:space="preserve">
<g>
	<g>
		<path d="M431.827,490.32h-55.893L327.72,287.653h82.88c5.867,0,10.667-4.8,10.667-10.667c0-3.52-1.813-6.827-4.8-8.853l-64-42.667
			c-1.707-1.173-3.84-1.813-5.867-1.813h-21.333V138.32h74.773c5.867,0,10.667-4.8,10.667-10.667c0-3.52-1.813-6.933-4.8-8.853
			l-64-42.667c-1.707-1.173-3.84-1.813-5.973-1.813H309.8L265,4.56c-3.947-6.08-14.08-6.08-17.92,0l-45.12,69.76h-26.133
			c-2.133,0-4.16,0.64-5.867,1.813l-64,42.667c-4.907,3.307-6.187,9.92-2.987,14.827c2.027,2.987,5.333,4.8,8.853,4.8h74.667v85.333
			H165.16c-2.133,0-4.16,0.64-5.973,1.813l-64,42.667c-4.907,3.307-6.187,9.92-2.987,14.827c2.027,2.987,5.333,4.8,8.853,4.8h82.24
			L135.08,490.533H80.147c-5.333,0-10.133,3.84-10.88,9.067c-0.96,6.4,4.16,12.053,10.56,12.053h351.68
			c5.333,0,10.133-3.84,10.88-9.067C443.347,495.973,438.227,490.32,431.827,490.32z M345.427,453.733l-76.16-99.947l39.893-52.267
			L345.427,453.733z M286.867,223.653h-62.4l31.253-28.373L286.867,223.653z M271.613,180.667l32.213-29.12V210L271.613,180.667z
			 M283.773,266.32h-56.64l17.707-21.333h21.867L283.773,266.32z M207.827,209.787v-58.133l32,29.12L207.827,209.787z
			 M292.84,287.653L255.827,336.4L218.6,287.653H292.84z M343.293,244.987l32,21.333H311.08l-17.067-21.333H343.293z
			 M332.627,95.653l32,21.333h-56.32l-21.333-21.333H332.627z M255.827,30.053L284.2,74.32h-56.853L255.827,30.053z M278.12,116.987
			h-44.48l21.333-21.333h1.813L278.12,116.987z M286.867,138.32l-31.147,28.16l-30.933-28.16H286.867z M147.027,116.987l32-21.333
			h45.653l-21.333,21.333H147.027z M136.36,266.32l32-21.333h48.747L199.4,266.32H136.36z M202.067,300.88l40.32,52.907
			L165.373,454.8L202.067,300.88z M165.373,490.32l90.453-118.72l90.453,118.72H165.373z"/>
	</g>
</g>
</svg>