<?xml version="1.0" encoding="UTF-8" standalone="no"?>
<!-- Uploaded to: SVG Repo, www.svgrepo.com, Generator: SVG Repo Mixer Tools -->

<svg
   fill="#000000"
   height="800"
   width="866.87097"
   version="1.1"
   id="Layer_1"
   viewBox="0 0 554.42141 511.653"
   xml:space="preserve"
   sodipodi:docname="electric-tower-power-line-svgrepo-com_export.svg"
   inkscape:version="1.4.2 (f4327f4, 2025-05-13)"
   xmlns:inkscape="http://www.inkscape.org/namespaces/inkscape"
   xmlns:sodipodi="http://sodipodi.sourceforge.net/DTD/sodipodi-0.dtd"
   xmlns="http://www.w3.org/2000/svg"
   xmlns:svg="http://www.w3.org/2000/svg"><defs
   id="defs2"><rect
     x="42.432083"
     y="239.06856"
     width="60.025871"
     height="68.305305"
     id="rect4" /><rect
     x="34.152653"
     y="202.84605"
     width="142.82018"
     height="178.00777"
     id="rect3" /><rect
     x="49.676586"
     y="309.44373"
     width="102.45796"
     height="157.30917"
     id="rect1" /></defs><sodipodi:namedview
   id="namedview2"
   pagecolor="#ffffff"
   bordercolor="#000000"
   borderopacity="0.25"
   inkscape:showpageshadow="2"
   inkscape:pageopacity="0.0"
   inkscape:pagecheckerboard="0"
   inkscape:deskcolor="#d1d1d1"
   inkscape:zoom="0.96625"
   inkscape:cx="155.75679"
   inkscape:cy="469.34023"
   inkscape:window-width="1920"
   inkscape:window-height="991"
   inkscape:window-x="-9"
   inkscape:window-y="-9"
   inkscape:window-maximized="1"
   inkscape:current-layer="g4"><inkscape:page
     x="0"
     y="0"
     width="554.42139"
     height="511.65302"
     id="page2"
     margin="0"
     bleed="0" /><inkscape:page
     x="550.22693"
     y="4.2603671e-16"
     width="511.65302"
     height="511.65302"
     id="page3"
     margin="0"
     bleed="0" /></sodipodi:namedview>
<g
   id="g2"
   transform="translate(28.57394)">
	<g
   id="g1">
		<path
   d="M 431.827,490.32 H 375.934 L 327.72,287.653 h 82.88 c 5.867,0 10.667,-4.8 10.667,-10.667 0,-3.52 -1.813,-6.827 -4.8,-8.853 l -64,-42.667 c -1.707,-1.173 -3.84,-1.813 -5.867,-1.813 H 325.267 V 138.32 h 74.773 c 5.867,0 10.667,-4.8 10.667,-10.667 0,-3.52 -1.813,-6.933 -4.8,-8.853 l -64,-42.667 C 340.2,74.96 338.067,74.32 335.934,74.32 H 309.8 L 265,4.56 c -3.947,-6.08 -14.08,-6.08 -17.92,0 l -45.12,69.76 h -26.133 c -2.133,0 -4.16,0.64 -5.867,1.813 l -64,42.667 c -4.907,3.307 -6.187,9.92 -2.987,14.827 2.027,2.987 5.333,4.8 8.853,4.8 h 74.667 V 223.76 H 165.16 c -2.133,0 -4.16,0.64 -5.973,1.813 l -64,42.667 c -4.907,3.307 -6.187,9.92 -2.987,14.827 2.027,2.987 5.333,4.8 8.853,4.8 h 82.24 L 135.08,490.533 H 80.147 c -5.333,0 -10.133,3.84 -10.88,9.067 -0.96,6.4 4.16,12.053 10.56,12.053 h 351.68 c 5.333,0 10.133,-3.84 10.88,-9.067 0.96,-6.613 -4.16,-12.266 -10.56,-12.266 z m -86.4,-36.587 -76.16,-99.947 39.893,-52.267 z m -58.56,-230.08 h -62.4 L 255.72,195.28 Z m -15.254,-42.986 32.213,-29.12 V 210 Z m 12.16,85.653 h -56.64 l 17.707,-21.333 h 21.867 z m -75.946,-56.533 v -58.133 l 32,29.12 z M 292.84,287.653 255.827,336.4 218.6,287.653 Z m 50.453,-42.666 32,21.333 H 311.08 l -17.067,-21.333 z m -10.666,-149.334 32,21.333 h -56.32 L 286.974,95.653 Z m -76.8,-65.6 28.373,44.267 h -56.853 z m 22.293,86.934 h -44.48 l 21.333,-21.333 h 1.813 z m 8.747,21.333 -31.147,28.16 -30.933,-28.16 z m -139.84,-21.333 32,-21.333 h 45.653 l -21.333,21.333 z m -10.667,149.333 32,-21.333 h 48.747 L 199.4,266.32 Z m 65.707,34.56 40.32,52.907 -77.014,101.013 z m -36.694,189.44 90.453,-118.72 90.453,118.72 z"
   id="path1" />
	</g>
</g>
<g
   style="fill:none"
   id="g3"
   transform="matrix(6.6211775,0,0,6.6211775,406.43947,336.1241)"><path
     d="M 16.771868,7.2015384 H 5.028837 m 11.743031,0 -4.697212,-4.6972126 M 16.771868,7.2015384 12.074656,11.89875 M 0.33162463,7.2015384 c 0,5.8369906 4.73173687,10.5687276 10.56872837,10.5687276 5.836944,0 10.568728,-4.731737 10.568728,-10.5687276 0,-5.8369442 -4.731784,-10.568728 -10.568728,-10.568728 -5.8369915,0 -10.56872837,4.7317838 -10.56872837,10.568728 z"
     stroke="#000000"
     stroke-width="1.76145"
     stroke-linecap="round"
     stroke-linejoin="round"
     id="path1-9" /></g><g
   style="fill:#000000"
   id="g4"
   transform="matrix(0.32231675,0,0,0.32231675,-10.742362,306.16235)" /></svg>
