<?xml version="1.0" encoding="UTF-8" standalone="no"?>
<!-- Uploaded to: SVG Repo, www.svgrepo.com, Generator: SVG Repo Mixer Tools -->

<svg
   height="759.95782"
   width="960.21991"
   version="1.1"
   id="_x32_"
   viewBox="0 0 614.54074 486.37301"
   xml:space="preserve"
   sodipodi:docname="solar-battery-4-svgrepo-com.svg"
   inkscape:version="1.4.2 (f4327f4, 2025-05-13)"
   xmlns:inkscape="http://www.inkscape.org/namespaces/inkscape"
   xmlns:sodipodi="http://sodipodi.sourceforge.net/DTD/sodipodi-0.dtd"
   xmlns="http://www.w3.org/2000/svg"
   xmlns:svg="http://www.w3.org/2000/svg"><defs
   id="defs3" /><sodipodi:namedview
   id="namedview3"
   pagecolor="#ffffff"
   bordercolor="#000000"
   borderopacity="0.25"
   inkscape:showpageshadow="2"
   inkscape:pageopacity="0.0"
   inkscape:pagecheckerboard="0"
   inkscape:deskcolor="#d1d1d1"
   inkscape:zoom="0.96625"
   inkscape:cx="396.37775"
   inkscape:cy="507.6326"
   inkscape:window-width="1920"
   inkscape:window-height="991"
   inkscape:window-x="-9"
   inkscape:window-y="-9"
   inkscape:window-maximized="1"
   inkscape:current-layer="_x32_" />
<style
   type="text/css"
   id="style1">
	.st0{fill:#000000;}
</style>
<g
   id="g3"
   transform="translate(51.270371,-12.814)">
	<path
   class="st0"
   d="M 77.604,241.753 87.651,200.13 c -21.697,-9.842 -38.879,-39.91 -38.879,-65.383 0,-40.4 32.761,-73.162 73.162,-73.162 31.978,0 59.097,20.563 69.049,49.153 h 28.136 c 4.574,-7.435 17.672,-17.408 15.484,-22.67 -2.766,-6.681 -27.566,-1.566 -31.546,-7.515 -4.003,-5.979 10.172,-26.951 5.1,-32.022 -5.078,-5.078 -26.05,9.104 -32.029,5.093 -5.941,-3.973 -0.834,-28.788 -7.508,-31.553 -6.572,-2.722 -20.497,18.396 -27.639,16.984 -6.922,-1.368 -11.723,-26.241 -19.048,-26.241 -7.325,0 -12.126,24.873 -19.048,26.241 -7.134,1.412 -21.06,-19.706 -27.631,-16.977 -6.681,2.766 -1.566,27.566 -7.515,31.546 -5.979,4.003 -26.951,-10.171 -32.022,-5.1 -5.078,5.078 9.104,26.05 5.101,32.029 C 36.838,86.495 12.03,81.387 9.257,88.061 6.535,94.633 27.654,108.565 26.241,115.7 24.873,122.622 0,127.423 0,134.747 c 0,7.325 24.873,12.126 26.242,19.048 1.412,7.134 -19.707,21.06 -16.977,27.631 2.766,6.681 27.565,1.566 31.546,7.515 4.003,5.979 -10.171,26.951 -5.1,32.022 5.078,5.078 26.05,-9.104 32.029,-5.101 3.724,2.496 9.198,17.585 9.864,25.891 z"
   id="path1" />
	<path
   class="st0"
   d="M 66.144,349.022 H 512 L 459.547,131.718 h -340.95 z m 407.79,-29.973 H 367.579 L 361.3,251.61 h 96.351 z M 435.948,161.691 452.23,229.13 h -93.022 l -6.271,-67.439 z m -188.304,0 h 82.718 l 6.278,67.439 h -95.275 z m -8.372,89.919 h 99.46 l 6.271,67.439 H 233.001 Z m -97.068,-89.919 h 82.865 l -6.271,67.439 h -92.876 z m 74.501,89.919 -6.279,67.439 H 104.218 L 120.5,251.61 Z"
   id="path2" />
	<polygon
   class="st0"
   points="66.144,359.508 83.634,394.479 494.511,394.479 512,359.508 "
   id="polygon2" />
	<polygon
   class="st0"
   points="218.358,470.897 218.358,499.187 359.794,499.187 359.794,470.897 314.131,448.271 311.702,408.668 266.449,408.668 264.02,448.271 "
   id="polygon3" />
</g>
</svg>
