<svg xmlns="http://www.w3.org/2000/svg" height="16" width="20" viewBox="0 0 640 512"><!--!Font Awesome Pro 6.5.1 by @fontawesome - https://fontawesome.com License - https://fontawesome.com/license (Commercial License) Copyright 2023 Fonticons, Inc.--><path opacity="1" fill="#1E3050" d="M0 96l32 0 448 0 32 0 0 32 0 64.7c-5.3-.5-10.6-.7-16-.7s-10.7 .2-16 .7l0-64.7L32 128l0 256 288.7 0c1 11 3 21.7 5.9 32L32 416 0 416l0-32L0 128 0 96zm64 64l32 0 224 0 32 0 0 32 0 74.8c-17.3 24.5-28.4 53.7-31.3 85.2l-.7 0L96 352l-32 0 0-32 0-128 0-32zm32 32l0 128 224 0 0-128L96 192zM352 368c0-51.4 27.4-99 72-124.7s99.4-25.7 144 0s72 73.3 72 124.7s-27.4 99-72 124.7s-99.4 25.7-144 0S352 419.4 352 368zm32 0c0 40 21.3 77 56 97s77.3 20 112 0s56-57 56-97s-21.3-77-56-97s-77.3-20-112 0s-56 57-56 97zm32-16l16 0 89.4 0-28.7-28.7L481.4 312 504 289.4l11.3 11.3c18.7 18.7 37.3 37.3 56 56L582.6 368l-11.3 11.3-56 56L504 446.6 481.4 424l11.3-11.3L521.4 384 432 384l-16 0 0-32zM544 192l32 0 0 19.2c-10.1-5.2-20.8-9.4-32-12.6l0-6.6z"/></svg>