<svg xmlns="http://www.w3.org/2000/svg" height="1em" viewBox="0 0 640 512"><!--! Font Awesome Pro 6.4.2 by @fontawesome - https://fontawesome.com License - https://fontawesome.com/license (Commercial License) Copyright 2023 Fonticons, Inc. --><path d="M4 266.6C-1.8 260-1.2 249.8 5.4 244C96.1 164 186.7 84 277.4 4c6-5.3 15.1-5.3 21.2 0c71.3 62.9 142.6 125.9 213.9 188.8c-5.4-.5-11-.8-16.5-.8c-10.2 0-20.1 .9-29.8 2.5C406.8 142.1 347.4 89.7 288 37.3C224 93.8 160 150.2 96 206.7c0 75.1 0 150.2 0 225.3c0 26.5 21.5 48 48 48c72.1 0 144.2 0 216.3 0c10 12.1 21.6 22.9 34.5 32c-83.6 0-167.2 0-250.8 0c-44.2 0-80-35.8-80-80c0-65.7 0-131.3 0-197c-12.5 11-24.9 22-37.4 33C20 273.8 9.8 273.2 4 266.6zM352 368c0-79.5 64.5-144 144-144s144 64.5 144 144s-64.5 144-144 144s-144-64.5-144-144zm32 0c0 61.9 50.1 112 112 112s112-50.1 112-112s-50.1-112-112-112s-112 50.1-112 112zm44.6 3.8c-1.6-4.9 .1-10.3 4.2-13.4c32-24 64-48 96-72c4.5-3.4 10.8-3.2 15.1 .6s5.4 9.9 2.6 14.9c-10 18.1-20.1 36.1-30.1 54.2c11.9 0 23.7 0 35.6 0c5.2 0 9.8 3.3 11.4 8.2s-.1 10.3-4.2 13.4c-32 24-64 48-96 72c-4.5 3.4-10.8 3.2-15.1-.6s-5.4-9.9-2.6-14.9c10-18.1 20.1-36.1 30.1-54.2c-11.9 0-23.7 0-35.6 0c-5.2 0-9.8-3.3-11.4-8.2z"/></svg>