<?xml version="1.0" encoding="utf-8"?>
<!-- Generator: Adobe Illustrator 15.0.2, SVG Export Plug-In . SVG Version: 6.00 Build 0)  -->
<!DOCTYPE svg PUBLIC "-//W3C//DTD SVG 1.1//EN" "http://www.w3.org/Graphics/SVG/1.1/DTD/svg11.dtd">
<svg version="1.1" id="weather-mostlycloudysun" xmlns="http://www.w3.org/2000/svg" xmlns:xlink="http://www.w3.org/1999/xlink"
	 x="0px" y="0px" width="120px" height="120px" viewBox="0 0 120 120" enable-background="new 0 0 120 120" xml:space="preserve">
<g>
	<path d="M105.82,27.29c0.42-0.51,0.25-1.41-0.41-2.06c-0.65-0.66-1.55-0.83-2.06-0.41c0,0-8.24,6.04-8.36,6.16
		c-0.92,0.93-0.62,2.72,0.67,4.01c1.29,1.29,3.09,1.59,4.01,0.67C99.79,35.53,105.82,27.29,105.82,27.29z"/>
	<path d="M49.92,24.81c-0.51-0.41-1.41-0.24-2.07,0.41c-0.66,0.66-0.83,1.56-0.41,2.06c0,0,6.04,8.24,6.16,8.36
		c0.92,0.92,2.72,0.63,4.01-0.67c1.29-1.29,1.59-3.09,0.67-4.01C58.16,30.85,49.92,24.81,49.92,24.81z"/>
	<path d="M78.33,14.45c-0.07-0.65-0.82-1.17-1.75-1.17c-0.93,0-1.68,0.52-1.75,1.17c0,0-1.56,10.09-1.56,10.27
		c0,1.3,1.48,2.36,3.31,2.36s3.31-1.06,3.31-2.36C79.89,24.55,78.33,14.45,78.33,14.45z"/>
	<path d="M110.02,58.64c-3.42-3.53-8.17-5.56-13.06-5.6c-0.46-10.85-9.31-19.53-20.4-19.53c-9.98,0-18.15,7.04-20.01,16.37
		c-2.09-0.48-4.25-0.74-6.45-0.74c-13.65,0-25.2,9.44-28.08,22.46C12.52,72.33,5,79.86,5,89.07c0,9.77,8.29,17.65,18.47,17.65h0.01
		h53.21c0.23,0,5.85,0.05,11.48-2.77c4.37-2.19,9.41-6.38,11.19-14.26c6.5-0.89,15.21-5.42,15.63-18.3
		C115.15,66.64,113.38,62.12,110.02,58.64z M76.57,40.35c5.57,0,10.27,3.28,12.39,7.98c-3.47-2.18-7.54-3.38-11.79-3.38
		c-5.01,0-9.72,1.77-13.47,4.63C65.49,44.22,70.52,40.35,76.57,40.35z M85.16,97.45c-4.13,2.13-8.44,2.19-8.47,2.19l-53.22,0.08
		c-6.23,0-11.31-4.74-11.31-10.57c0-5.73,5.08-10.39,11.33-10.39c0.41,0,0.82,0.02,1.23,0.06c0,0,2.06,0.13,3.03-0.77
		c0.75-0.7,0.88-2.42,0.88-2.42c1.16-11.01,10.4-19.31,21.48-19.31c6.91,0,13.24,3.07,17.3,8.55c0.09,0.12,0.18,0.25,0.26,0.37
		c0.18,0.25,0.37,0.52,0.54,0.79c0.1,0.16,0.21,0.31,0.31,0.46c0.88,1.38,2.6,1.99,4.15,1.46c1.43-0.48,2.83-0.66,4.11-0.7
		c8.87,0.03,16.08,7.26,16.08,16.14C92.86,90.17,90.34,94.76,85.16,97.45z M107.86,71.13c-0.26,7.72-4.65,10.31-7.87,11.17
		C99.41,69.97,89.2,60.11,76.72,60.11c-1.28,0-2.55,0.1-3.8,0.3c-1.48-1.93-3.17-3.64-5.04-5.11c0.01-0.01,0.02-0.01,0.03-0.02
		c0,0-0.01-0.01-0.01-0.01c2.56-2,5.78-3.17,9.26-3.17c5.17,0,9.92,2.61,12.71,6.98c0.84,1.33,2.46,1.95,3.98,1.52
		c0.97-0.27,1.98-0.41,3-0.41c3.01,0,5.94,1.25,8.05,3.43C106.9,65.68,107.96,68.35,107.86,71.13z"/>
</g>
</svg>
