<svg xmlns="http://www.w3.org/2000/svg" height="16" width="20" viewBox="0 0 640 512"><!--!Font Awesome Pro 6.5.1 by @fontawesome - https://fontawesome.com License - https://fontawesome.com/license (Commercial License) Copyright 2023 Fonticons, Inc.--><path opacity="1" fill="#1E3050" d="M0 176c0-44.2 35.8-80 80-80l196 0-33.8 32L80 128c-26.5 0-48 21.5-48 48l0 160c0 26.5 21.5 48 48 48l66.4 0c1 12.1 6.2 23.4 14.4 32L80 416c-44.2 0-80-35.8-80-80L0 176zm144 98.4c0-5.9 2.4-11.6 6.7-15.7L299.8 117.5c3.7-3.5 8.7-5.5 13.8-5.5c14.7 0 24.4 15.2 18.2 28.5L297 216l49.4 0c11.9 0 21.6 9.7 21.6 21.6c0 5.9-2.4 11.6-6.7 15.7L212.2 394.5c-3.7 3.5-8.7 5.5-13.8 5.5c-14.7 0-24.4-15.2-18.2-28.5L215 296l-49.4 0c-11.9 0-21.6-9.7-21.6-21.6zM191.7 264l48.3 0c5.5 0 10.5 2.8 13.5 7.4s3.3 10.4 1 15.3l-19.4 41.9L320.3 248 272 248c-5.5 0-10.5-2.8-13.5-7.4s-3.3-10.4-1-15.3l19.4-41.9L191.7 264zM236 416l33.8-32 50.9 0c1 11 3 21.7 5.9 32L236 416zM351.2 96L432 96c44.2 0 80 35.8 80 80l0 16.7c-5.3-.5-10.6-.7-16-.7s-10.7 .2-16 .7l0-16.7c0-26.5-21.5-48-48-48l-66.4 0c-1-12.1-6.2-23.4-14.4-32zm.8 272.1c0-51.4 27.4-99 72-124.7s99.4-25.7 144 0s72 73.3 72 124.7s-27.4 99-72 124.7s-99.4 25.7-144 0s-72-73.3-72-124.7zm32 0c0 40 21.3 77 56 97s77.3 20 112 0s56-57 56-97s-21.3-77-56-97s-77.3-20-112 0s-56 57-56 97zm36.7-11.4l56-56c6.2-6.2 16.4-6.2 22.6 0s6.2 16.4 0 22.6L470.6 352l89.4 0c8.8 0 16 7.2 16 16s-7.2 16-16 16l-89.4 0 28.7 28.7c6.2 6.2 6.2 16.4 0 22.6s-16.4 6.2-22.6 .1l-56-56c-6.3-6.3-6.3-16.4 0-22.7zM546.5 199.4c2.9-4.4 7.8-7.4 13.5-7.4c8.8 0 16 7.2 16 16l0 3.2c-9.4-4.8-19.2-8.8-29.5-11.8z"/></svg>