<?xml version="1.0" encoding="UTF-8" standalone="no"?>
<svg
   viewBox="0 0 512 512"
   version="1.1"
   id="svg1"
   sodipodi:docname="utility-pole-thin-grid-consumption_daily.svg"
   inkscape:version="1.3.2 (091e20e, 2023-11-25, custom)"
   xmlns:inkscape="http://www.inkscape.org/namespaces/inkscape"
   xmlns:sodipodi="http://sodipodi.sourceforge.net/DTD/sodipodi-0.dtd"
   xmlns="http://www.w3.org/2000/svg"
   xmlns:svg="http://www.w3.org/2000/svg">
  <defs
     id="defs1">
    <clipPath
       clipPathUnits="userSpaceOnUse"
       id="clipPath73">
      <path
         id="path74"
         style="fill:#ff0000;fill-opacity:1;fill-rule:nonzero;stroke:none;stroke-width:32"
         d="m 108.8125,96 c 0.0255,0.14496 0.0371,0.29248 0.0624,0.437504 0.0229,0.0576 0.0381,0.128 0.0624,0.18752 1.66822,0.09632 3.33336,0.184 5,0.31264 0.0208,0.0016 0.0416,-0.0016 0.0624,0 1.28355,-0.22336 2.58736,-0.30528 3.875,-0.5 0.26528,-0.15584 0.54288,-0.2896 0.81251,-0.437504 z m 214.87499,0 c 0.0139,0.58352 0.048,1.166432 0.064,1.749984 0.85728,-0.16 1.69664,-0.337184 2.56256,-0.5 2.82112,-0.493392 5.66598,-0.814304 8.49846,-1.249984 z m 135.4375,119.5 c -3.96249,-0.0806 -7.91561,0.0496 -11.87497,0.18752 -4.2826,0.20224 -8.56272,0.55981 -12.81252,1.12499 -4.52441,0.64896 -9.02464,1.02618 -13.56249,1.5625 -5.00919,0.73552 -10.08112,1.26291 -15.12499,1.68749 -3.88679,0.30528 -7.79751,0.4366 -11.68752,0.68748 -3.90631,0.0912 -7.72932,0.9537 -11.5625,1.625 -3.90166,0.6024 -7.79658,1.08684 -11.62499,2.06249 -1.64768,0.32426 -3.22279,0.87776 -4.75002,1.5625 -0.011,0.0442 -0.0512,0.081 -0.064,0.12512 -0.33792,1.35363 -0.67904,2.7088 -1,4.0625 -0.56544,2.81757 -0.97152,5.64662 -1.31232,8.5 -0.48832,3.59817 -1.23936,7.12526 -1.9376,10.6875 -0.67904,3.76693 -1.47872,7.52937 -2.37504,11.25 -1.09184,4.60291 -2.5744,9.07987 -4.25001,13.5 -1.23776,3.07523 -2.44672,6.20171 -3.74999,9.25 -0.81792,1.99738 -1.88,3.86284 -2.50016,5.9375 -0.39712,1.7895 -1.14816,3.4671 -1.56256,5.25 -0.62816,2.2112 -1.04256,4.51305 -1.56256,6.75 -0.61056,3.43142 -1.4576,6.76444 -2.37504,10.125 -1.13152,3.97257 -2.2944,7.96799 -3.4375,11.93751 -0.89344,3.72234 -1.984,7.37351 -3,11.0625 -0.74016,3.25318 -1.71328,6.49363 -2.43744,9.74998 -0.4864,2.44928 -1.00384,4.84221 -1.37504,7.31252 -0.48384,2.68704 -0.56544,5.40377 -0.68736,8.12499 -0.1888,4.53539 -0.2592,9.08643 -0.3136,13.62502 1.35616,7.75562 3.07456,15.44634 4.81251,23.12499 1.26208,5.01818 2.09568,10.13421 3.18752,15.18749 0.43392,1.95008 1.28096,3.80048 1.9376,5.68752 1.0608,3.0144 2.07968,6.06445 3,9.12499 0.74464,2.65856 1.38144,5.32477 2.0624,8 0.55328,3.26346 1.78976,6.28768 2.9376,9.37501 1.90112,5.20115 3.72579,10.42109 5.4375,15.68749 2.01952,6.38662 3.65738,12.8919 5.0625,19.4375 1.10592,3.96186 1.94304,8.02004 2.68768,12.0625 0.80544,3.84416 1.31616,7.72378 1.75008,11.62499 0.328,3.14208 0.64512,6.2864 0.87488,9.43751 H 640 V 227.3125 c -2.39136,0.0128 -4.80605,-0.004 -7.18749,0 -3.40873,0.005 -6.77878,-7.9e-4 -10.18752,0 -2.95104,5.8e-4 -5.92397,-1.3e-4 -8.87501,0 -2.75712,1.1e-4 -5.49302,-2e-5 -8.24998,0 -3.51958,0.10464 -7.00064,-0.0739 -10.5,-0.4375 -3.47181,-0.36077 -6.95821,-0.4922 -10.4375,-0.74999 -3.36,-0.27232 -6.76474,-0.66739 -10.125,-0.9375 -3.28742,-0.11488 -6.49276,-0.74023 -9.75001,-1.12499 -2.82176,-0.38548 -5.66519,-0.7224 -8.5,-1 -4.32272,-0.50839 -8.61968,-1.24746 -12.93751,-1.81252 -3.39155,-0.42262 -6.77228,-0.79715 -10.18748,-0.9375 -4.71357,-0.14976 -9.40941,-0.15392 -14.125,-0.18752 -5.05008,-0.13792 -10.08137,-0.4087 -15.12499,-0.68749 -4.22441,-0.18176 -8.47648,-0.42755 -12.68752,-0.81251 -3.25033,-0.16576 -6.36998,-1.00931 -9.56249,-1.5625 -2.62016,-0.37094 -5.24791,-0.67712 -7.87501,-1 -2.40192,-0.25792 -4.83687,-0.36051 -7.24999,-0.4375 -2.42464,-0.0726 -4.88704,-0.10656 -7.31251,-0.12512 z" />
    </clipPath>
    <clipPath
       clipPathUnits="userSpaceOnUse"
       id="clipPath5">
      <path
         id="path6"
         style="fill:#ff0000;fill-opacity:1;fill-rule:nonzero;stroke:none;stroke-width:32"
         d="m 334.81267,96.000537 c -2.83248,0.435681 -5.67723,0.757236 -8.49836,1.250629 -0.86592,0.162813 -1.70597,0.338639 -2.56325,0.498637 -0.016,-0.583549 -0.0508,-1.165745 -0.0647,-1.749266 z m -216.12442,0 c -0.26964,0.147908 -0.5487,0.280803 -0.81398,0.436647 -1.28764,0.194719 -2.59233,0.277961 -3.87588,0.501328 -0.0208,-0.0014 -0.0411,0.0014 -0.062,0 -1.66664,-0.128616 -3.3316,-0.216343 -4.99982,-0.312654 -0.0243,-0.05948 -0.0391,-0.1311 -0.062,-0.188674 -0.0252,-0.145025 -0.0366,-0.291692 -0.062,-0.436647 z M 459.12632,215.50034 c 2.42546,0.0186 4.88777,0.0513 7.31241,0.12406 2.41312,0.077 4.8458,0.18142 7.24771,0.43934 2.62711,0.32288 5.25557,0.62902 7.87573,0.99995 3.19252,0.55319 6.31269,1.39484 9.56301,1.5606 4.21104,0.38496 8.46248,0.63223 12.68688,0.81399 5.04362,0.27879 10.07608,0.54938 15.12615,0.68731 4.71559,0.0335 9.40992,0.0362 14.12349,0.18597 3.4152,0.14035 6.79677,0.51535 10.18832,0.93798 4.31782,0.56506 8.61483,1.30555 12.93754,1.81395 2.83481,0.2776 5.67929,0.61449 8.50105,0.99996 3.25725,0.38476 6.46156,1.00908 9.74898,1.12395 3.36026,0.27011 6.76364,0.66564 10.12363,0.93797 3.47929,0.25779 6.96718,0.38853 10.43898,0.7493 3.49936,0.36359 6.9814,0.54128 10.50098,0.43665 2.75696,-3e-5 5.49057,1.1e-4 8.24769,0 2.95103,-1.4e-4 5.92466,5.8e-4 8.87569,0 3.40874,-7.8e-4 6.77959,0.006 10.18832,0 2.38144,-0.004 4.79707,0.0124 7.18842,0 V 511.99925 H 365.93555 c -0.22976,-3.15109 -0.54798,-6.29423 -0.87598,-9.4363 -0.43392,-3.90122 -0.94382,-7.78078 -1.74926,-11.62493 -0.74464,-4.04246 -1.58132,-8.10241 -2.68724,-12.06427 -1.40513,-6.5456 -3.04499,-13.04935 -5.06451,-19.43596 -1.71171,-5.2664 -3.53535,-10.48564 -5.43646,-15.68678 -1.14784,-3.08733 -2.38462,-6.11357 -2.93791,-9.37704 -0.68095,-2.6752 -1.31728,-5.34114 -2.06192,-7.9997 -0.92033,-3.06054 -1.93909,-6.10927 -2.9999,-9.12367 -0.65663,-1.88704 -1.50401,-3.73706 -1.93792,-5.68713 -1.09185,-5.05327 -1.9238,-10.16996 -3.18588,-15.18814 -1.73795,-7.67864 -3.45767,-15.37025 -4.81383,-23.12586 0.0544,-4.53859 0.12378,-9.08947 0.31264,-13.62486 0.12185,-2.72122 0.20346,-5.43667 0.68731,-8.1237 0.37121,-2.47031 0.89092,-4.86313 1.37731,-7.31241 0.72416,-3.25635 1.69641,-6.4985 2.43657,-9.75167 1.016,-3.68899 2.10646,-7.33927 2.99991,-11.06161 1.14308,-3.96951 2.30501,-7.96502 3.43653,-11.93758 0.91742,-3.36055 1.76402,-6.69492 2.37457,-10.12633 0.52,-2.23694 0.93513,-4.53788 1.56328,-6.74908 0.41441,-1.78291 1.16616,-3.46099 1.56329,-5.25049 0.62016,-2.07465 1.68065,-3.94041 2.49857,-5.93779 1.30327,-3.04829 2.51413,-6.17243 3.75188,-9.24764 1.67561,-4.42015 3.15868,-8.89799 4.25053,-13.50088 0.89631,-3.72063 1.69554,-7.48335 2.37457,-11.25029 0.69825,-3.56222 1.44963,-7.08876 1.93795,-10.68695 0.34079,-2.85336 0.74719,-5.68346 1.31262,-8.50103 0.32096,-1.35371 0.66204,-2.70824 0.99996,-4.06186 0.0124,-0.0442 0.0511,-0.0825 0.062,-0.12668 1.52723,-0.68475 3.10419,-1.23633 4.75186,-1.56059 3.82841,-0.97565 7.72328,-1.45952 11.62492,-2.06192 3.83319,-0.67131 7.65394,-1.53409 11.56024,-1.62528 3.89,-0.25088 7.80282,-0.38202 11.68962,-0.68731 5.04386,-0.42458 10.11426,-0.95175 15.12345,-1.68728 4.53784,-0.53631 9.03845,-0.9143 13.56286,-1.56326 4.2498,-0.56519 8.53096,-0.92441 12.81356,-1.12665 3.95936,-0.13787 7.9131,-0.26659 11.87559,-0.18599 z m 43.88523,64.80094 c -1.50811,-0.0813 -3.19263,0.10598 -5.36099,0.69809 -3.73482,1.01978 -6.40612,2.6215 -8.4741,4.81384 -0.25549,0.11219 -0.5117,0.22225 -0.76277,0.34231 -1.03807,0.18887 -2.0772,0.36721 -3.1104,0.57949 -0.75735,0.20586 -1.53153,0.35753 -2.27216,0.61724 -5.18084,1.81657 -9.80298,5.17584 -12.31493,10.20987 -0.0694,0.13923 -0.11937,0.287 -0.18327,0.42856 -3.67071,1.98156 -6.61727,4.72885 -9.1668,8.98889 -0.41445,0.86197 -0.86405,1.70648 -1.24254,2.58482 -1.25712,2.91747 -1.90332,6.05548 -2.79236,9.09132 -0.0911,0.38784 -0.16989,0.77858 -0.25875,1.16707 -3.64563,1.56452 -7.04939,3.62445 -10.315,5.89739 -3.13106,2.26036 -5.95604,4.90101 -8.62772,7.67897 -2.40343,2.4465 -4.29206,5.25165 -5.87581,8.24228 -0.75428,-0.0213 -1.50691,-0.0753 -2.26137,-0.0889 -0.86604,-0.0335 -1.73435,-0.0155 -2.601,-0.0269 -0.0789,-0.011 -0.0299,-0.007 -0.11592,-0.0189 -0.13942,-0.0189 -0.56377,0.008 -0.42316,0.0138 0.17947,0.007 0.35945,0.003 0.53906,0.006 2.05364,0.27602 1.94739,0.23967 3.01337,0.49326 -9.4065,-0.87484 -10.26796,-2.46909 -19.19607,4.4931 -4.0186,3.13373 -5.45609,9.3393 -6.13726,14.13427 -0.31956,2.82283 -0.41781,5.66571 -0.48515,8.50373 -0.0668,2.50902 -0.073,5.01291 0.0377,7.51995 0.62095,5.17172 2.47326,9.99222 6.09413,13.8378 2.63305,2.79648 3.72248,3.13598 6.89732,4.96477 4.30973,2.04714 9.02641,2.57742 13.7192,2.92173 1.69347,0.11537 3.38943,0.13887 5.08606,0.1779 0.74029,1.80016 1.51381,3.58473 2.36381,5.33943 2.56627,4.97164 6.23275,9.23082 9.91339,13.39844 5.03354,5.89849 11.15962,10.62561 17.54385,14.95366 0.034,0.0235 0.0711,0.0413 0.10516,0.0647 0.33333,2.0414 0.81309,4.04043 1.6145,5.82729 0.75462,1.6825 1.7777,3.23281 2.66568,4.84889 1.30538,1.35034 2.34475,3.02259 3.9163,4.05106 6.56212,4.29446 11.05307,4.83001 18.12604,3.67642 4.2637,-0.74873 8.4597,-1.83229 12.42813,-3.59825 0.12655,-0.0588 0.24837,-0.12655 0.37465,-0.18599 2.97175,-0.68629 5.84761,-1.69616 8.48218,-3.30175 2.20626,-1.40474 4.31623,-2.94613 6.26663,-4.68178 1.15399,-0.70742 2.28402,-1.45436 3.32872,-2.33685 2.13959,-1.5705 4.19641,-3.23332 6.19115,-4.98365 1.46805,-1.13556 3.00747,-2.1813 4.52006,-3.25596 1.99121,-1.3452 3.91366,-2.78244 5.82729,-4.23433 2.08926,-1.45962 4.1462,-2.96697 6.32053,-4.30445 1.84702,-1.32076 3.59747,-2.74926 5.25587,-4.28016 0.70454,-0.31868 1.4077,-0.64478 2.12392,-0.93258 -0.0358,0.0243 -0.0853,0.0356 -0.10781,0.0727 -0.0674,0.11095 0.26159,-9.4e-4 0.38812,-0.0297 2.11462,-0.4809 1.5706,-0.36909 3.90283,-1.10508 2.85252,-1.17129 1.37866,-0.48442 4.40415,-2.11043 8.87252,-4.76842 8.61674,-8.00894 4.46076,-10.57645 0.62147,-0.25935 1.24854,-0.50718 1.85169,-0.8059 4.17378,-2.06719 7.75072,-5.1514 10.64922,-8.77327 2.11525,-2.82935 3.99,-5.80453 5.40951,-9.04819 1.3763,-2.74895 2.64133,-5.55365 3.46349,-8.52532 1.20039,-3.51485 2.44698,-7.04568 2.6522,-10.79475 0.16595,-3.13797 0.0638,-6.27065 -0.44204,-9.37704 -0.81899,-4.90038 -2.16846,-9.7291 -5.25588,-13.74344 -2.24912,-2.92132 -4.7967,-5.53074 -7.79217,-7.69245 -2.18703,-1.69043 -4.47113,-3.2421 -6.65475,-4.93244 -2.20753,-1.69317 -4.44551,-3.34051 -6.56311,-5.14807 -0.41083,-0.18728 -0.17465,-0.0595 -0.80051,-0.64957 -1.06266,-1.0019 -2.11733,-2.01312 -3.1697,-3.02414 -1.91233,-2.05845 -3.83243,-4.117 -5.77608,-6.14265 -2.56734,-3.08481 -5.13559,-6.1833 -8.17761,-8.8218 -2.40349,-2.07514 -4.82053,-4.13507 -7.37979,-6.01865 -1.65206,-1.23369 -3.13831,-2.67017 -4.70873,-4.00256 -1.43523,-1.28704 -2.63397,-2.82953 -4.0861,-4.09958 -4.3387,-4.29833 -8.12861,-6.79183 -14.24478,-8.03205 -1.05283,-0.10764 -2.09935,-0.26837 -3.15622,-0.32343 -1.76193,-0.0919 -3.52007,0.0903 -5.27205,0.30456 -1.48915,-0.48951 -2.84239,-0.85292 -4.37182,-0.93528 z" />
    </clipPath>
  </defs>
  <sodipodi:namedview
     id="namedview1"
     pagecolor="#ffffff"
     bordercolor="#000000"
     borderopacity="0.25"
     inkscape:showpageshadow="2"
     inkscape:pageopacity="0.0"
     inkscape:pagecheckerboard="0"
     inkscape:deskcolor="#d1d1d1"
     inkscape:zoom="1.5175781"
     inkscape:cx="248.75161"
     inkscape:cy="302.78508"
     inkscape:window-width="1920"
     inkscape:window-height="991"
     inkscape:window-x="-9"
     inkscape:window-y="-9"
     inkscape:window-maximized="1"
     inkscape:current-layer="svg1"
     showgrid="false" />
  <!--! Font Awesome Pro 6.4.2 by @fontawesome - https://fontawesome.com License - https://fontawesome.com/license (Commercial License) Copyright 2023 Fonticons, Inc. -->
  <path
     d="M248 16c-4.4 0-8 3.6-8 8V80h32V24c0-4.4-3.6-8-8-8H248zM224 80V24c0-13.3 10.7-24 24-24h16c13.3 0 24 10.7 24 24V80H432V40c0-4.4 3.6-8 8-8s8 3.6 8 8V80h48V40c0-4.4 3.6-8 8-8s8 3.6 8 8V80 96v16c0 17.7-14.3 32-32 32H410.5L288 228.2V504c0 4.4-3.6 8-8 8s-8-3.6-8-8V224.1c0-.1 0-.1 0-.2V144H240v79.9c0 .1 0 .1 0 .2V504c0 4.4-3.6 8-8 8s-8-3.6-8-8V228.2L101.5 144H32c-17.7 0-32-14.3-32-32V96 80 40c0-4.4 3.6-8 8-8s8 3.6 8 8V80H64V40c0-4.4 3.6-8 8-8s8 3.6 8 8V80H224zM104.1 128H232h48H407.9c.1 0 .1 0 .2 0H480c8.8 0 16-7.2 16-16V96H288 272 240 224 16v16c0 8.8 7.2 16 16 16h71.9c.1 0 .1 0 .2 0zm25.6 16L224 208.8V144H129.8zm252.5 0H288v64.8L382.2 144z"
     id="path1" />
  <path
     opacity="1"
     fill="#1e3050"
     d="m 352,368 c 0,-51.4 27.4,-99 72,-124.7 44.6,-25.7 99.4,-25.7 144,0 44.6,25.7 72,73.3 72,124.7 0,51.4 -27.4,99 -72,124.7 -44.6,25.7 -99.4,25.7 -144,0 C 379.4,467 352,419.4 352,368 Z m 32,0 c 0,40 21.3,77 56,97 34.7,20 77.3,20 112,0 34.7,-20 56,-57 56,-97 0,-40 -21.3,-77 -56,-97 -34.7,-20 -77.3,-20 -112,0 -34.7,20 -56,57 -56,97 z m 32,-16 h 16 89.4 L 492.7,323.3 481.4,312 504,289.4 l 11.3,11.3 56,56 11.3,11.3 -11.3,11.3 -56,56 L 504,446.6 481.4,424 492.7,412.7 521.4,384 H 432 416 Z"
     id="path1-6"
     clip-path="url(#clipPath73)"
     sodipodi:nodetypes="sssssssssssssscccccccccccccccccc"
     transform="matrix(0.72463507,0,0,0.72463507,46.985421,139.74342)"
     style="fill:#000000;fill-opacity:1" />
  <text
     xml:space="preserve"
     style="font-style:normal;font-variant:normal;font-weight:bold;font-stretch:normal;font-size:128px;font-family:Sans;-inkscape-font-specification:'Sans, Bold';font-variant-ligatures:normal;font-variant-caps:normal;font-variant-numeric:normal;font-variant-east-asian:normal;fill:#000000"
     x="59.3396"
     y="441.7471"
     id="text3"><tspan
       sodipodi:role="line"
       id="tspan3"
       x="59.3396"
       y="441.7471">∑</tspan></text>
</svg>
