<?xml version="1.0" encoding="UTF-8" standalone="no"?>
<svg
   viewBox="0 0 512 512"
   version="1.1"
   id="svg1"
   sodipodi:docname="utility-pole-thin-grid-feed-in.svg"
   inkscape:version="1.3.2 (091e20e, 2023-11-25, custom)"
   xmlns:inkscape="http://www.inkscape.org/namespaces/inkscape"
   xmlns:sodipodi="http://sodipodi.sourceforge.net/DTD/sodipodi-0.dtd"
   xmlns="http://www.w3.org/2000/svg"
   xmlns:svg="http://www.w3.org/2000/svg">
  <defs
     id="defs1">
    <clipPath
       clipPathUnits="userSpaceOnUse"
       id="clipPath73">
      <path
         id="path74"
         style="fill:#ff0000;fill-opacity:1;fill-rule:nonzero;stroke:none;stroke-width:32"
         d="m 108.8125,96 c 0.0255,0.14496 0.0371,0.29248 0.0624,0.437504 0.0229,0.0576 0.0381,0.128 0.0624,0.18752 1.66822,0.09632 3.33336,0.184 5,0.31264 0.0208,0.0016 0.0416,-0.0016 0.0624,0 1.28355,-0.22336 2.58736,-0.30528 3.875,-0.5 0.26528,-0.15584 0.54288,-0.2896 0.81251,-0.437504 z m 214.87499,0 c 0.0139,0.58352 0.048,1.166432 0.064,1.749984 0.85728,-0.16 1.69664,-0.337184 2.56256,-0.5 2.82112,-0.493392 5.66598,-0.814304 8.49846,-1.249984 z m 135.4375,119.5 c -3.96249,-0.0806 -7.91561,0.0496 -11.87497,0.18752 -4.2826,0.20224 -8.56272,0.55981 -12.81252,1.12499 -4.52441,0.64896 -9.02464,1.02618 -13.56249,1.5625 -5.00919,0.73552 -10.08112,1.26291 -15.12499,1.68749 -3.88679,0.30528 -7.79751,0.4366 -11.68752,0.68748 -3.90631,0.0912 -7.72932,0.9537 -11.5625,1.625 -3.90166,0.6024 -7.79658,1.08684 -11.62499,2.06249 -1.64768,0.32426 -3.22279,0.87776 -4.75002,1.5625 -0.011,0.0442 -0.0512,0.081 -0.064,0.12512 -0.33792,1.35363 -0.67904,2.7088 -1,4.0625 -0.56544,2.81757 -0.97152,5.64662 -1.31232,8.5 -0.48832,3.59817 -1.23936,7.12526 -1.9376,10.6875 -0.67904,3.76693 -1.47872,7.52937 -2.37504,11.25 -1.09184,4.60291 -2.5744,9.07987 -4.25001,13.5 -1.23776,3.07523 -2.44672,6.20171 -3.74999,9.25 -0.81792,1.99738 -1.88,3.86284 -2.50016,5.9375 -0.39712,1.7895 -1.14816,3.4671 -1.56256,5.25 -0.62816,2.2112 -1.04256,4.51305 -1.56256,6.75 -0.61056,3.43142 -1.4576,6.76444 -2.37504,10.125 -1.13152,3.97257 -2.2944,7.96799 -3.4375,11.93751 -0.89344,3.72234 -1.984,7.37351 -3,11.0625 -0.74016,3.25318 -1.71328,6.49363 -2.43744,9.74998 -0.4864,2.44928 -1.00384,4.84221 -1.37504,7.31252 -0.48384,2.68704 -0.56544,5.40377 -0.68736,8.12499 -0.1888,4.53539 -0.2592,9.08643 -0.3136,13.62502 1.35616,7.75562 3.07456,15.44634 4.81251,23.12499 1.26208,5.01818 2.09568,10.13421 3.18752,15.18749 0.43392,1.95008 1.28096,3.80048 1.9376,5.68752 1.0608,3.0144 2.07968,6.06445 3,9.12499 0.74464,2.65856 1.38144,5.32477 2.0624,8 0.55328,3.26346 1.78976,6.28768 2.9376,9.37501 1.90112,5.20115 3.72579,10.42109 5.4375,15.68749 2.01952,6.38662 3.65738,12.8919 5.0625,19.4375 1.10592,3.96186 1.94304,8.02004 2.68768,12.0625 0.80544,3.84416 1.31616,7.72378 1.75008,11.62499 0.328,3.14208 0.64512,6.2864 0.87488,9.43751 H 640 V 227.3125 c -2.39136,0.0128 -4.80605,-0.004 -7.18749,0 -3.40873,0.005 -6.77878,-7.9e-4 -10.18752,0 -2.95104,5.8e-4 -5.92397,-1.3e-4 -8.87501,0 -2.75712,1.1e-4 -5.49302,-2e-5 -8.24998,0 -3.51958,0.10464 -7.00064,-0.0739 -10.5,-0.4375 -3.47181,-0.36077 -6.95821,-0.4922 -10.4375,-0.74999 -3.36,-0.27232 -6.76474,-0.66739 -10.125,-0.9375 -3.28742,-0.11488 -6.49276,-0.74023 -9.75001,-1.12499 -2.82176,-0.38548 -5.66519,-0.7224 -8.5,-1 -4.32272,-0.50839 -8.61968,-1.24746 -12.93751,-1.81252 -3.39155,-0.42262 -6.77228,-0.79715 -10.18748,-0.9375 -4.71357,-0.14976 -9.40941,-0.15392 -14.125,-0.18752 -5.05008,-0.13792 -10.08137,-0.4087 -15.12499,-0.68749 -4.22441,-0.18176 -8.47648,-0.42755 -12.68752,-0.81251 -3.25033,-0.16576 -6.36998,-1.00931 -9.56249,-1.5625 -2.62016,-0.37094 -5.24791,-0.67712 -7.87501,-1 -2.40192,-0.25792 -4.83687,-0.36051 -7.24999,-0.4375 -2.42464,-0.0726 -4.88704,-0.10656 -7.31251,-0.12512 z" />
    </clipPath>
  </defs>
  <sodipodi:namedview
     id="namedview1"
     pagecolor="#ffffff"
     bordercolor="#000000"
     borderopacity="0.25"
     inkscape:showpageshadow="2"
     inkscape:pageopacity="0.0"
     inkscape:pagecheckerboard="0"
     inkscape:deskcolor="#d1d1d1"
     inkscape:zoom="1.5175781"
     inkscape:cx="256"
     inkscape:cy="256"
     inkscape:window-width="1920"
     inkscape:window-height="991"
     inkscape:window-x="-9"
     inkscape:window-y="-9"
     inkscape:window-maximized="1"
     inkscape:current-layer="svg1"
     showgrid="false" />
  <!--! Font Awesome Pro 6.4.2 by @fontawesome - https://fontawesome.com License - https://fontawesome.com/license (Commercial License) Copyright 2023 Fonticons, Inc. -->
  <path
     d="M248 16c-4.4 0-8 3.6-8 8V80h32V24c0-4.4-3.6-8-8-8H248zM224 80V24c0-13.3 10.7-24 24-24h16c13.3 0 24 10.7 24 24V80H432V40c0-4.4 3.6-8 8-8s8 3.6 8 8V80h48V40c0-4.4 3.6-8 8-8s8 3.6 8 8V80 96v16c0 17.7-14.3 32-32 32H410.5L288 228.2V504c0 4.4-3.6 8-8 8s-8-3.6-8-8V224.1c0-.1 0-.1 0-.2V144H240v79.9c0 .1 0 .1 0 .2V504c0 4.4-3.6 8-8 8s-8-3.6-8-8V228.2L101.5 144H32c-17.7 0-32-14.3-32-32V96 80 40c0-4.4 3.6-8 8-8s8 3.6 8 8V80H64V40c0-4.4 3.6-8 8-8s8 3.6 8 8V80H224zM104.1 128H232h48H407.9c.1 0 .1 0 .2 0H480c8.8 0 16-7.2 16-16V96H288 272 240 224 16v16c0 8.8 7.2 16 16 16h71.9c.1 0 .1 0 .2 0zm25.6 16L224 208.8V144H129.8zm252.5 0H288v64.8L382.2 144z"
     id="path1" />
  <path
     opacity="1"
     fill="#1e3050"
     d="m 352,368 c 0,-51.4 27.4,-99 72,-124.7 44.6,-25.7 99.4,-25.7 144,0 44.6,25.7 72,73.3 72,124.7 0,51.4 -27.4,99 -72,124.7 -44.6,25.7 -99.4,25.7 -144,0 C 379.4,467 352,419.4 352,368 Z m 32,0 c 0,40 21.3,77 56,97 34.7,20 77.3,20 112,0 34.7,-20 56,-57 56,-97 0,-40 -21.3,-77 -56,-97 -34.7,-20 -77.3,-20 -112,0 -34.7,20 -56,57 -56,97 z m 32,-16 h 16 89.4 L 492.7,323.3 481.4,312 504,289.4 l 11.3,11.3 56,56 11.3,11.3 -11.3,11.3 -56,56 L 504,446.6 481.4,424 492.7,412.7 521.4,384 H 432 416 Z"
     id="path1-6"
     clip-path="url(#clipPath73)"
     sodipodi:nodetypes="sssssssssssssscccccccccccccccccc"
     transform="matrix(-0.72463507,0,0,0.72463507,765.82341,139.74342)"
     style="fill:#000000;fill-opacity:1" />
</svg>
