<?xml version="1.0" encoding="utf-8"?>
<!-- Generator: Adobe Illustrator 19.2.1, SVG Export Plug-In . SVG Version: 6.00 Build 0)  -->
<svg version="1.1" id="layer" xmlns="http://www.w3.org/2000/svg" xmlns:xlink="http://www.w3.org/1999/xlink" x="0px" y="0px"
	 viewBox="0 0 652 652" style="enable-background:new 0 0 652 652;" xml:space="preserve">
<style type="text/css">
	.st0{fill:#1A1918;}
</style>
<g>
	<path class="st0" d="M245.2,340.4c0.4-0.6,1.2-2.1,1.5-2.7c0.5-0.8,1.7-1.1,2.9-0.3c0,0,4.6,3.7,10,3.7c4.4,0,6.9-2.2,6.9-5.1
		c0-3.7-3.2-5.5-9.4-8.6c-5.7-2.8-12.2-6.5-12.2-13.8c0-4.5,3.6-11.1,13.6-11.1c5.5,0,9.8,1.9,11.9,3.3c1,0.7,1.3,2.1,0.7,3.3
		l-0.9,1.7c-0.6,1.1-2,1.5-3.1,1c0,0-4.6-2.6-8.6-2.6c-4.8,0-6.1,2.5-6.1,4.3c0,3.5,3.6,5.1,7.9,7.3c7.4,3.5,14,6.8,14,14.5
		c0,6.2-6,12.1-14.8,12.1c-5,0.1-10-1.6-13.9-4.8C245.2,342.2,244.9,341.1,245.2,340.4 M323.3,340.5c7.8,0,13.9-6.9,13.9-15.6
		c0-8.5-6.1-15.3-13.9-15.3s-13.9,6.8-13.9,15.3C309.4,333.5,315.5,340.5,323.3,340.5z M323.3,302.6c11.9,0,21.3,10.2,21.3,22.3
		c0,12.3-9.4,22.5-21.3,22.5S302,337.2,302,324.9C302,312.8,311.4,302.6,323.3,302.6z M376.7,305.6c0-1.1,1-2,2-2h2
		c1,0,1.5,0.4,1.7,1.3l1,3.3c0,0,6.1-5.7,14.9-5.7c12.4,0,16.6,8.1,16.6,19.2v22.5c0,1.1-1,2-2,2h-3.4c-1.1,0-2-0.9-2-2v-22.5
		c0-8.1-3.6-12.1-9.6-12.1c-8,0-13.8,6.1-13.8,6.1v28.5c0,1.1-1,2-2,2h-3.3c-1.1,0-2-0.9-2-2L376.7,305.6 M447.4,305.6
		c0-1.1,1-2,2-2h2c1,0,1.5,0.4,1.7,1.3l1,3.3c0,0,6.1-5.7,14.9-5.7c12.4,0,16.6,8.1,16.6,19.2v22.5c0,1.1-1,2-2,2h-3.4
		c-1.1,0-2-0.9-2-2v-22.5c0-8.1-3.6-12.1-9.6-12.1c-8,0-13.8,6.1-13.8,6.1v28.5c0,1.1-1,2-2,2h-3.3c-1.1,0-2-0.9-2-2L447.4,305.6
		 M551,320.8c-0.3-6.2-5.5-11.8-12-11.8c-6.8-0.1-12.7,5-13.4,11.8C525.5,320.8,551,320.8,551,320.8z M539,302.5
		c10.4-0.3,19.1,7.9,19.4,18.3c0,0.4,0,0.8,0,1.2c0,0.8-0.1,2.2-0.2,2.9c-0.1,1-0.9,1.8-1.9,1.8h-30.8c0.4,7.2,6.7,13.9,14.3,13.9
		c4.5,0,8.1-1.7,10.6-3.2c1.5-0.8,2.1-1.4,3-0.2l1.8,2.5c0.7,1,1.2,1.6-0.4,2.8c-4.6,3.3-10.1,5-15.7,4.9
		c-12.9,0-20.9-10.1-20.9-22.4C518.1,312.9,526.1,302.6,539,302.5L539,302.5z M588.5,305.6c0-1.1,1-2,2-2h2c1,0,1.5,0.4,1.7,1.3
		l1,3.3c0,0,6.1-5.7,15-5.7c12.4,0,16.6,8.1,16.6,19.2v22.5c0,1.1-1,2-2,2h-3.4c-1.1,0-2-0.9-2-2v-22.5c0-8.1-3.6-12.1-9.6-12.1
		c-8,0-13.8,6.1-13.8,6.1v28.5c0,1.1-1,2-2,2h-3.3c-1.1,0-2-0.9-2-2L588.5,305.6 M109.7,402.4c-41.5,0-75.2-33.6-75.2-75.1
		c0,0,0,0,0,0c0-41.5,33.7-75.2,75.2-75.1c0,0,0,0,0,0c41.5,0,75.2,33.6,75.2,75.1c0,0,0,0,0,0C184.9,368.8,151.2,402.4,109.7,402.4
		C109.7,402.4,109.7,402.4,109.7,402.4z M108.8,243.1c-45.3,0-82,36.7-82,81.9c0,45.3,36.7,81.9,82,81.9c45.3,0,82-36.7,82-81.9
		C190.8,279.8,154.1,243.1,108.8,243.1L108.8,243.1z"/>
</g>
</svg>
